<?xml version="1.0" encoding="utf-8"?>
<!-- Generator: Adobe Illustrator 16.0.4, SVG Export Plug-In . SVG Version: 6.00 Build 0)  -->
<!DOCTYPE svg PUBLIC "-//W3C//DTD SVG 1.1//EN" "http://www.w3.org/Graphics/SVG/1.1/DTD/svg11.dtd">
<svg version="1.1" id="werewolf_artwork" xmlns="http://www.w3.org/2000/svg" xmlns:xlink="http://www.w3.org/1999/xlink" x="0px"
	 y="0px" width="850.394px" height="850.382px" viewBox="0 0 850.394 850.382" enable-background="new 0 0 850.394 850.382"
	 xml:space="preserve">
<g>
	<path fill="#E95420" d="M668.976,435.146l-60.367-13.934l44.451-2.962c-5.646-4.993-11.022-10.276-16.131-15.811l-36.657-22.913
		l24.062,8.019c-2.079-2.688-4.084-5.435-6.035-8.218l-26.363-16.476l19.815,6.604c-1.551-2.479-3.071-4.982-4.524-7.527
		l-16.855-11.238l-6.776-4.514l7.986,2.661l10.48,3.493c-1.957-3.852-3.81-7.765-5.546-11.742
		c15.138-26.836,23.213-57.258,23.213-88.731c0-21.721-3.805-42.961-11.306-63.13c-7.483-20.13-18.443-38.633-32.57-54.992
		c-1.067-1.234-2.604-1.925-4.211-1.925c-0.338,0-0.68,0.032-1.022,0.096c-1.947,0.367-3.55,1.737-4.211,3.604
		c-9.734,27.428-24.137,52.803-42.808,75.42c-8.936,10.823-18.672,20.797-29.15,29.889c-2.465-0.423-4.947-0.829-7.446-1.208
		l3.455,4.606l1.433,1.911l-2.474-1.06l-17.343-7.433c-3.025-0.343-6.07-0.649-9.132-0.927l3.938,5.25l-14.096-6.042
		c-9.071-0.595-18.272-0.905-27.59-0.905c-9.318,0-18.521,0.31-27.588,0.905l-14.1,6.042l3.938-5.25
		c-3.058,0.278-6.104,0.584-9.13,0.927l-17.344,7.433l-2.473,1.06l1.433-1.911l3.456-4.606c-2.5,0.379-4.979,0.785-7.449,1.208
		c-10.473-9.092-20.215-19.065-29.147-29.889c-18.673-22.618-33.072-47.993-42.808-75.42c-0.66-1.867-2.267-3.237-4.211-3.604
		c-0.344-0.064-0.688-0.096-1.027-0.096c-1.596,0-3.14,0.691-4.207,1.925c-14.124,16.359-25.083,34.862-32.569,54.992
		c-7.501,20.169-11.303,41.409-11.303,63.13c0,31.475,8.08,61.896,23.21,88.732c-1.736,3.978-3.589,7.89-5.546,11.741l10.478-3.493
		l7.983-2.661l-6.772,4.514l-16.853,11.238c-1.453,2.544-2.972,5.047-4.524,7.527l19.813-6.604l-26.358,16.476
		c-1.953,2.784-3.961,5.53-6.038,8.218l24.058-8.019l-36.654,22.913c-5.109,5.535-10.487,10.818-16.128,15.812l44.448,2.962
		l-60.365,13.934c3.227,1.51,7.19,3.688,11.686,6.412l65.353,4.669l-45.506,8.533c18.075,12.92,39.183,30.173,56.776,48.027
		l30.415,10.139l-16.727,4.778c2.067,2.448,4.044,4.89,5.896,7.312l27.502,4.588l-18.694,8.308c0.825,1.398,1.599,2.782,2.318,4.147
		l24.715-4.122l-16.646,20.813c0.905,1.745,1.824,3.444,2.746,5.129l13.9-9.265l-7.023,21.071c1.31,2.129,2.63,4.224,3.957,6.269
		l11.403-19v35.867c0.326,0.47,0.653,0.938,0.979,1.404l7.357-12.262v22.842c1.732,2.513,3.438,5.027,5.106,7.552l3.229-5.383
		v10.377c6.262,9.87,11.907,20.118,16.364,31.751c13.395,62.422,34.632,48.774,58.353,63.473c0.105,0,0.212,0.008,0.318,0.008
		c0.102,0,0.213-0.008,0.318-0.008c23.72-14.698,44.958-1.051,58.353-63.473c4.459-11.633,10.102-21.882,16.361-31.752v-10.376
		l3.23,5.383c1.669-2.524,3.375-5.039,5.114-7.552v-22.842l7.35,12.263c0.328-0.467,0.654-0.936,0.979-1.405v-35.867l11.406,19
		c1.324-2.045,2.645-4.139,3.953-6.269l-7.021-21.071l13.899,9.265c0.926-1.685,1.843-3.384,2.75-5.129l-16.649-20.813l24.72,4.122
		c0.716-1.365,1.49-2.749,2.31-4.147l-18.691-8.308l27.506-4.588c1.853-2.422,3.827-4.863,5.896-7.312l-16.733-4.778l30.421-10.139
		c17.594-17.854,38.701-35.107,56.777-48.027l-45.508-8.533l65.356-4.669C661.78,438.834,665.748,436.656,668.976,435.146z
		 M594.238,301.71l-7.369,12.214l-2.233,3.702l2.658-2.224l9.724-8.134l-6.718,17.411l-1.622,4.203
		c-1.532-2.413-3.109-4.796-4.725-7.151c-0.639-0.935-1.283-1.868-1.938-2.795c-0.551-0.782-1.108-1.559-1.67-2.336
		c-0.917-1.265-1.835-2.528-2.773-3.775c-0.759-1.013-1.534-2.014-2.307-3.016l5.08-10.878V311.9l4.957-3.638L594.238,301.71z
		 M369.767,363.833c2.517,4.103,4.944,7.897,7.202,11.324c7.062,2.313,14.872,4.13,23.215,5.354
		c3.437,0.503,6.959,0.909,10.561,1.204c3.442-8.592,6.052-17.7,7.689-27.203c0.71,9.625,2.432,18.922,5.02,27.775
		c0.581,0.006,1.158,0.017,1.742,0.017s1.162-0.011,1.743-0.017c2.59-8.854,4.31-18.15,5.021-27.775
		c1.633,9.503,4.247,18.611,7.691,27.203c3.6-0.294,7.12-0.7,10.555-1.204c8.345-1.225,16.154-3.042,23.216-5.355
		c2.259-3.426,4.687-7.221,7.202-11.324c11.394-18.595,39.34-24.604,39.34-24.604c3.35,5.473,5.273,11.655,5.273,18.224
		c0,13.811-8.348,25.989-21.047,33.211c4.598,5.099,7.154,10.727,7.154,16.651c0,4.089-1.237,8.037-3.509,11.771
		c-0.47,0.779-0.972,1.549-1.533,2.308c1.468,6.187,2.271,12.635,2.271,19.271c0,10.202-2.747,20.462-6.754,29.858
		c-2.523,4.295-6.102,7.891-10.394,10.413c-3.103,1.37-6.846,2.636-11.122,3.773c-0.234,0.06-0.463,0.125-0.702,0.188
		c-13.858,3.575-33.111,5.794-54.406,5.794c-21.294,0-40.549-2.219-54.405-5.794c-0.237-0.063-0.467-0.129-0.703-0.188
		c-4.277-1.138-8.021-2.404-11.13-3.776c-4.288-2.522-7.867-6.119-10.389-10.414c-4.004-9.396-6.743-19.653-6.743-29.854
		c0-6.637,0.799-13.085,2.264-19.271c-0.562-0.759-1.062-1.529-1.534-2.307c-2.271-3.735-3.51-7.684-3.51-11.772
		c0-5.924,2.555-11.551,7.154-16.65c-12.702-7.223-21.046-19.401-21.046-33.212c0-6.569,1.928-12.751,5.276-18.224
		C330.43,339.229,358.371,345.238,369.767,363.833z M436.548,512.618c0.067-0.831,0.096-1.683,0.096-2.556
		c0-0.217-0.008-0.429-0.012-0.645c-0.039-2.203-0.286-4.268-0.694-6.084c0.704-1.94,1.915-3.405,3.365-4.011
		c2.395,1.143,4.186,5.399,4.235,10.516c0,0.076,0.006,0.149,0.006,0.224c0,1.74-0.207,3.375-0.564,4.838
		c-0.558,2.299-1.504,4.146-2.668,5.207c-0.297,0.021-0.602,0.036-0.905,0.036c-1.542,0-2.98-0.284-4.211-0.773
		C435.874,517.507,436.356,515.19,436.548,512.618z M434.767,519.227c-1.475,0.301-2.817,0.959-3.972,1.87
		c-1.704-0.035-3.334-0.349-4.834-0.895c-0.223-1.708-0.352-3.539-0.352-5.468c0-4.914,0.791-9.297,2.032-12.181
		c0.949-2.212,2.163-3.54,3.488-3.54c1.321,0,2.535,1.328,3.483,3.54c0.388,0.889,0.716,1.935,1.001,3.077
		c0.187,1.31,0.303,2.694,0.33,4.156c0.004,0.215,0.014,0.434,0.014,0.66c0,0.901-0.037,1.779-0.1,2.635
		C435.692,515.379,435.301,517.46,434.767,519.227z M413.84,512.618c0.194,2.572,0.677,4.89,1.356,6.752
		c-1.235,0.489-2.671,0.773-4.21,0.773c-0.308,0-0.609-0.015-0.909-0.036c-1.164-1.061-2.108-2.908-2.669-5.207
		c-0.355-1.463-0.562-3.098-0.562-4.838c0-0.074,0.007-0.147,0.007-0.224c0.05-5.116,1.838-9.373,4.234-10.516
		c1.449,0.605,2.659,2.07,3.365,4.011c-0.408,1.816-0.654,3.881-0.696,6.084c-0.004,0.216-0.013,0.428-0.013,0.645
		C413.743,510.935,413.778,511.787,413.84,512.618z M414.53,513.083c-0.062-0.855-0.099-1.733-0.099-2.635
		c0-0.227,0.01-0.445,0.014-0.66c0.027-1.462,0.146-2.847,0.328-4.156c0.286-1.143,0.62-2.188,1.001-3.077
		c0.951-2.212,2.165-3.54,3.488-3.54s2.536,1.328,3.487,3.54c1.239,2.884,2.031,7.267,2.031,12.181c0,1.929-0.129,3.76-0.354,5.468
		c-1.5,0.546-3.128,0.859-4.837,0.895c-1.148-0.911-2.492-1.569-3.966-1.87C415.087,517.46,414.697,515.379,414.53,513.083z
		 M266.438,321.73c-1.614,2.355-3.191,4.738-4.728,7.151l-1.62-4.201l-6.717-17.413l9.726,8.135l2.653,2.223l-2.232-3.701
		l-7.367-12.215l8.935,6.553l4.96,3.638V298.93l5.083,10.878c-0.776,1.002-1.553,2.003-2.313,3.016
		c-0.937,1.248-1.854,2.511-2.77,3.775c-0.562,0.778-1.122,1.554-1.675,2.336C267.721,319.862,267.079,320.795,266.438,321.73z
		 M366.836,507.291c0-0.502,0.017-0.993,0.024-1.491c2.399-5.809,6.129-9.548,10.321-9.548c5.729,0,10.595,6.971,12.38,16.677
		c-1.312,6.055-2.029,12.511-2.029,19.222c0,1.337,0.037,2.665,0.094,3.981c0.455,10.862,2.771,20.963,6.473,29.6
		c-7.289-3.976-13.616-10.944-18.34-19.909C370.177,535.231,366.836,521.852,366.836,507.291z M396.064,676.874
		c-1.409-0.123-2.658-0.772-3.638-1.756c-0.721-1.373-1.392-2.76-2.026-4.151c-3.02-6.639-5.083-13.488-6.113-20.04
		c-1.233-7.833-1.008-15.229,0.746-21.272c1.859,11.734,6.025,22.818,12.067,32.656c1.791,2.92,3.749,5.729,5.862,8.411
		C402.394,674.459,399.407,677.177,396.064,676.874z M403.749,517.068c-1.505,2.124-2.61,4.637-3.232,7.374
		c-0.299,1.319-0.479,2.689-0.534,4.101c-1.552-1.301-2.908-2.897-3.995-4.733c-1.846-3.114-2.934-6.889-2.938-10.962
		c0-0.009-0.001-0.017-0.001-0.02c0-0.01,0.001-0.014,0.001-0.023c0.004-4.758,1.192-8.881,2.938-10.963
		c0.77-0.921,1.647-1.446,2.579-1.446c1.723,0,3.26,1.778,4.272,4.562c-0.079,0.771-0.132,1.549-0.132,2.344
		c0,2.672,0.463,5.215,1.302,7.532c0.154,0.423,0.334,0.829,0.517,1.244C404.258,516.403,403.994,516.725,403.749,517.068z
		 M440.894,683.929c-1.178-0.539-2.173-1.782-2.817-3.44c-0.12,0.358-0.246,0.705-0.38,1.026c-0.965,2.324-2.196,3.718-3.539,3.718
		c-1.344,0-2.577-1.394-3.542-3.718c-0.143-0.342-0.274-0.711-0.407-1.095c-0.738,1.708-1.714,2.958-2.826,3.509
		c-0.822-0.357-1.562-1.009-2.183-1.869c-0.621,0.86-1.358,1.512-2.179,1.869c-1.116-0.553-2.093-1.812-2.833-3.527
		c-0.133,0.392-0.271,0.766-0.416,1.113c-0.966,2.324-2.2,3.718-3.542,3.718c-1.343,0-2.577-1.394-3.541-3.718
		c-0.132-0.317-0.258-0.668-0.377-1.022c-0.646,1.656-1.641,2.897-2.819,3.437c-2.064-1.079-3.619-5.021-3.753-9.811
		c1.672,1.395,3.654,2.605,5.87,3.584c0.182,0.078,0.359,0.16,0.543,0.236c2.399,1.006,5.062,1.739,7.9,2.145
		c0.074,0.012,0.15,0.021,0.229,0.032c1.296,0.175,2.631,0.282,3.993,0.312c0.306,0.011,0.612,0.015,0.921,0.015
		c0.311,0,0.621-0.004,0.927-0.015c1.36-0.03,2.69-0.138,3.988-0.312c0.078-0.012,0.162-0.021,0.241-0.034
		c2.83-0.406,5.486-1.139,7.883-2.143c0.186-0.074,0.363-0.154,0.543-0.234c2.218-0.98,4.198-2.191,5.871-3.586
		C444.512,678.909,442.96,682.85,440.894,683.929z M445.869,516.078c0.18-0.415,0.359-0.821,0.514-1.244
		c0.837-2.317,1.302-4.86,1.302-7.532c0-0.795-0.053-1.572-0.135-2.344c1.014-2.784,2.551-4.562,4.271-4.562
		c0.936,0,1.81,0.525,2.585,1.446c1.741,2.082,2.93,6.205,2.934,10.963c0,0.01,0.002,0.014,0.002,0.023
		c0,0.003-0.002,0.011-0.002,0.02c-0.004,4.073-1.094,7.848-2.934,10.962c-1.092,1.836-2.446,3.433-4.001,4.733
		c-0.053-1.411-0.234-2.781-0.53-4.101c-0.621-2.737-1.728-5.25-3.232-7.374C446.396,516.725,446.13,516.403,445.869,516.078z
		 M466.105,650.926c-1.028,6.552-3.096,13.401-6.115,20.04c-0.637,1.392-1.31,2.778-2.028,4.151
		c-0.976,0.983-2.229,1.633-3.636,1.756c-3.346,0.304-6.329-2.414-6.899-6.152c2.116-2.683,4.071-5.491,5.862-8.411
		c6.041-9.838,10.21-20.922,12.064-32.656C467.111,635.697,467.341,643.093,466.105,650.926z M474.625,545.822
		c-4.718,8.965-11.044,15.934-18.335,19.909c3.703-8.637,6.016-18.737,6.475-29.6c0.057-1.316,0.096-2.645,0.096-3.981
		c0-6.711-0.72-13.167-2.03-19.222c1.784-9.706,6.649-16.677,12.375-16.677c4.196,0,7.924,3.739,10.318,9.548
		c0.011,0.498,0.028,0.989,0.028,1.491C483.552,521.852,480.214,535.231,474.625,545.822z"/>
	<path fill="#E95420" d="M393.022,468.693c-0.362-0.628-0.696-1.253-0.977-1.867c-1.765-3.857-1.87-7.331,0.122-9.225
		c3.441-3.283,11.812-0.623,18.694,5.938c3.476,3.315,5.884,6.983,6.993,10.231c2.397,0.16,4.846,0.246,7.338,0.246
		c2.495,0,4.948-0.086,7.343-0.246c1.108-3.248,3.515-6.915,6.991-10.23c6.884-6.562,15.256-9.222,18.699-5.939
		c1.989,1.895,1.882,5.367,0.119,9.227c-0.283,0.614-0.615,1.238-0.978,1.866c11.728-4.432,19.24-11.233,19.24-18.862
		c0-11.095-15.878-17.986-37.528-20.006c-4.435-0.199-9.089-0.275-13.889-0.275c-4.795,0-9.443,0.076-13.875,0.273
		c-21.647,2.02-37.532,8.912-37.532,20.008C373.784,457.46,381.297,464.261,393.022,468.693z"/>
	<path fill="#E95420" d="M355.629,382.73c1.115,0.175,2.26,0.269,3.421,0.269c2.848,0,5.555-0.56,8.048-1.546
		c0,0-1.513-1.149-3.642-3.204c-1.264-1.216-2.737-2.754-4.258-4.574c-0.938,0.754-2.129,1.209-3.426,1.209
		c-3.022,0-5.473-2.45-5.473-5.471c0-2.067,1.146-3.863,2.835-4.794c-5.202-10.031-13.562-13.445-13.562-13.445
		c-1.524,2.985-2.404,6.358-2.404,9.939C337.169,372.035,345.171,381.086,355.629,382.73z"/>
	<path fill="#E95420" d="M494.761,382.73c10.457-1.644,18.462-10.695,18.462-21.616c0-3.581-0.88-6.954-2.408-9.939
		c0,0-8.357,3.414-13.558,13.445c1.688,0.931,2.833,2.727,2.833,4.794c0,3.021-2.447,5.471-5.469,5.471
		c-1.3,0-2.49-0.455-3.429-1.209c-1.521,1.819-2.997,3.358-4.255,4.574c-2.133,2.055-3.645,3.204-3.645,3.204
		c2.488,0.986,5.199,1.546,8.043,1.546C492.501,382.999,493.643,382.905,494.761,382.73z"/>
</g>
</svg>
